<?xml version="1.0" standalone="no"?>
<!DOCTYPE svg PUBLIC "-//W3C//DTD SVG 1.1//EN" "http://www.w3.org/Graphics/SVG/1.1/DTD/svg11.dtd" >
<svg xmlns="http://www.w3.org/2000/svg">
<metadata></metadata>
<defs>
<font id="amplitude-lightregular" horiz-adv-x="1210" >
<font-face units-per-em="2048" ascent="1638" descent="-410" />
<missing-glyph horiz-adv-x="487" />
<glyph horiz-adv-x="2048" />
<glyph horiz-adv-x="2048" />
<glyph unicode="&#xd;" horiz-adv-x="487" />
<glyph unicode=" "  horiz-adv-x="487" />
<glyph unicode="&#x09;" horiz-adv-x="487" />
<glyph unicode="&#xa0;" horiz-adv-x="487" />
<glyph unicode="!" horiz-adv-x="522" d="M150 94q0 51 33.5 83t76.5 32q47 0 80 -32t33 -83q0 -49 -33 -80.5t-80 -31.5q-43 0 -76.5 31.5t-33.5 80.5zM197 848v569h129v-569l-35 -492h-60z" />
<glyph unicode="&#x22;" horiz-adv-x="704" d="M147 1190v227h125v-227l-34 -305h-56zM432 1190v227h125v-227l-35 -305h-55z" />
<glyph unicode="#" horiz-adv-x="1167" d="M88 371l16 102h205l64 416h-203l16 102h203l53 342h90l-53 -342h309l54 342h90l-53 -342h200l-16 -102h-201l-63 -416h198l-16 -102h-199l-57 -371h-90l57 371h-309l-57 -371h-90l57 371h-205zM397 469h314l63 424h-313z" />
<glyph unicode="$" horiz-adv-x="972" d="M94 66l35 81q57 -25 108.5 -44t108.5 -29l82 575q-76 25 -134 53.5t-99 68.5t-62.5 97.5t-21.5 141.5q0 174 96 261t272 87h49l33 235l96 -14l-32 -231q61 -10 109 -25.5t91 -34.5l-22 -90q-51 16 -95 29.5t-98 21.5l-73 -526q74 -25 135 -53.5t105 -71.5t67.5 -104.5 t23.5 -151.5q0 -184 -102 -277.5t-279 -93.5h-30q-12 0 -27 2l-41 -284l-96 16l39 279q-72 10 -128.5 31.5t-109.5 50.5zM223 1018q0 -55 9.5 -94t34 -69t66.5 -52.5t109 -46.5l72 501h-47q-123 0 -183.5 -54t-60.5 -185zM442 63h19q143 0 217 59.5t74 215.5q0 57 -9.5 99 t-36 74t-70.5 57.5t-116 49.5z" />
<glyph unicode="%" horiz-adv-x="1632" d="M86 938q0 82 18.5 157.5t56.5 134t94 93.5t132 35q78 0 134.5 -35t93 -92t54 -132t17.5 -157q0 -86 -18.5 -164t-56.5 -137t-94 -94t-134 -35q-76 0 -132 35t-93 93t-54.5 135t-17.5 163zM203 889q0 -88 14 -145.5t40 -90t58.5 -46t69.5 -13.5t69.5 14.5t58.5 48t40 91 t14 143.5v86q0 86 -14 142.5t-40 90t-58.5 47t-69.5 13.5t-69.5 -14.5t-58.5 -48t-40 -90t-14 -142.5v-86zM397 0l733 1333h105l-733 -1333h-105zM946 397q0 82 18.5 158t56.5 134.5t94 93t132 34.5q78 0 134.5 -34.5t93 -92t54 -132.5t17.5 -157q0 -86 -18.5 -163.5 t-56 -137t-94 -94.5t-134.5 -35q-76 0 -132 35t-93 93.5t-54.5 135t-17.5 162.5zM1063 348q0 -88 14.5 -145.5t40 -90t58 -46t69.5 -13.5t70 14.5t58.5 48.5t39.5 91t14 143v86q0 86 -14 142.5t-39.5 90t-58.5 47t-70 13.5t-69.5 -14.5t-58 -48t-40 -90t-14.5 -142.5v-86z " />
<glyph unicode="&#x26;" horiz-adv-x="1206" d="M86 354q0 94 27.5 162t69.5 116t93.5 79.5t98.5 54.5l-6 8q-41 53 -68 99.5t-42 89.5t-21.5 86t-6.5 88q0 68 24 123t64.5 95t97 61.5t122.5 21.5q57 0 110 -18.5t93 -54.5t64.5 -90t24.5 -128q0 -113 -30.5 -174.5t-73.5 -108.5l-211 -88l344 -446q35 78 61.5 184.5 t43.5 245.5h112l-22 -144q-16 -104 -47 -205.5t-74 -177.5l180 -233h-149l-138 178l-45 -108q-14 -14 -37.5 -30.5t-59.5 -32t-84 -26t-112 -10.5q-86 0 -160.5 27t-128 76t-84 120.5t-30.5 159.5zM219 362q0 -158 70.5 -226t214.5 -68q86 0 159.5 35.5t133.5 115.5 l-381 494q-100 -59 -148.5 -133t-48.5 -199v-19zM356 1141q0 -84 17.5 -143.5t72.5 -131.5l46 -59q47 23 88 49.5t71.5 63t48 87t17.5 119.5q0 115 -49.5 159t-126.5 44q-80 0 -132.5 -43t-52.5 -145z" />
<glyph unicode="'" horiz-adv-x="468" d="M125 1325q0 49 31.5 81t76.5 32t78 -32t33 -81q0 -45 -17.5 -85t-41.5 -77l-109 -168l-41 21l86 221l-61 8q-14 14 -24.5 31.5t-10.5 48.5z" />
<glyph unicode="(" horiz-adv-x="585" d="M115 647q0 164 35.5 298t87 237.5t107.5 176.5t99 111h86q-68 -88 -121 -176t-89.5 -184t-56 -203.5t-19.5 -236.5v-45q0 -129 19.5 -237.5t56 -207t91 -191.5t124.5 -194h-86q-41 41 -98.5 116t-110 181.5t-89 245.5t-36.5 309z" />
<glyph unicode=")" horiz-adv-x="585" d="M51 -205q70 100 124 193.5t91 192t56.5 207t19.5 237.5v45q0 129 -19.5 236.5t-56.5 203.5t-90 184t-121 176h86q43 -39 99.5 -111.5t107.5 -176t87 -237.5t36 -298q0 -170 -37 -309t-89 -245.5t-109.5 -181.5t-98.5 -116h-86z" />
<glyph unicode="*" horiz-adv-x="856" d="M92 1133l33 104l113 -35l174 -96l-39 194v117h110v-117l-37 -194l172 96l113 35l33 -104l-113 -35l-192 -27l141 -133l70 -96l-88 -66l-70 96l-84 175l-84 -175l-70 -96l-88 66l70 96l141 133l-192 27z" />
<glyph unicode="+" horiz-adv-x="1003" d="M123 559v111h319v360h119v-360h320v-111h-320v-360h-119v360h-319z" />
<glyph unicode="," horiz-adv-x="481" d="M123 100q0 53 35 87t82 34q49 0 83.5 -33.5t34.5 -87.5q0 -51 -23.5 -97t-47.5 -85l-101 -154l-49 25l90 217l-69 10q-14 14 -24.5 34t-10.5 50z" />
<glyph unicode="-" horiz-adv-x="636" d="M123 547v121h391v-121h-391z" />
<glyph unicode="." horiz-adv-x="481" d="M123 100q0 53 35 87t82 34q49 0 83.5 -33.5t34.5 -87.5q0 -53 -34.5 -85.5t-83.5 -32.5q-47 0 -82 32.5t-35 85.5z" />
<glyph unicode="/" horiz-adv-x="782" d="M31 -205l614 1675h107l-615 -1675h-106z" />
<glyph unicode="0" horiz-adv-x="1128" d="M113 670q0 154 27.5 279.5t84 216.5t141.5 141.5t199 50.5q115 0 199 -49t140.5 -139.5t84 -216.5t27.5 -279q0 -338 -109.5 -520.5t-345.5 -182.5q-117 0 -201 50.5t-139 141.5t-81.5 220t-26.5 287zM242 657q0 -160 19.5 -271.5t59 -182t101 -103t143.5 -32.5 q164 0 243 138t79 458v41q0 285 -77 416.5t-247 131.5q-168 0 -244.5 -136t-76.5 -421v-39z" />
<glyph unicode="1" horiz-adv-x="761" d="M133 0v96h195v1065h-195v53l248 119h70v-1237h188v-96h-506z" />
<glyph unicode="2" horiz-adv-x="946" d="M86 0v113l12 49q18 72 55 133t84.5 114.5t101.5 101.5t107 95q61 53 108.5 97.5t80.5 86t50 86t17 97.5v22q0 76 -14 125t-45 79t-77 42t-111 12q-96 0 -166 -23.5t-135 -53.5l-31 88q61 35 141 64.5t205 29.5q100 0 170 -29t113 -78t62.5 -113.5t19.5 -136.5 q0 -80 -27 -144t-72 -120.5t-105.5 -107.5t-129.5 -107q-61 -47 -111.5 -91t-89.5 -91t-66.5 -101.5t-39.5 -121.5l-7 -33l211 18h426v-102h-737z" />
<glyph unicode="3" horiz-adv-x="985" d="M78 63l31 89q41 -16 76.5 -31t73.5 -25t80 -16t93 -6q160 0 239 66.5t79 213.5v21q0 160 -81 223.5t-253 63.5h-113v98h84q92 0 153.5 13t98.5 43t53.5 76t16.5 112v14q0 68 -15.5 113t-49.5 72.5t-87 38.5t-131 11q-47 0 -83 -4t-68.5 -11t-65.5 -18.5t-74 -23.5l-22 92 q57 25 136 47.5t189 22.5q111 0 186.5 -25.5t123 -72t68 -110t20.5 -136.5q0 -133 -65.5 -197.5t-188.5 -99.5q139 -29 218 -119t79 -244q0 -86 -29 -156.5t-84 -120.5t-134 -78t-179 -28q-131 0 -221.5 29t-153.5 63z" />
<glyph unicode="4" horiz-adv-x="1112" d="M88 348v68l574 917h167v-880h179v-105h-179v-348h-122v348h-619zM229 453h478v575l16 258l-117 -225z" />
<glyph unicode="5" horiz-adv-x="962" d="M78 70l31 88q41 -18 75.5 -33.5t70.5 -27t76 -17.5t89 -6q150 0 229.5 74.5t79.5 254.5v21q0 98 -17.5 160.5t-48 97.5t-75.5 48t-101 13q-51 0 -86.5 -9t-62.5 -22.5t-46.5 -31.5t-35.5 -37l-119 19l29 671h629v-102h-521l-16 -340l-33 -182q43 49 106.5 88t166.5 39 q72 0 137 -22.5t115.5 -73t80 -131.5t29.5 -195q0 -96 -30.5 -178t-86 -140.5t-133.5 -91.5t-170 -33q-131 0 -217 31t-145 68z" />
<glyph unicode="6" horiz-adv-x="1075" d="M113 520q0 150 49 274t124.5 224t169 179t181.5 136h190q-106 -57 -202.5 -128.5t-173 -153.5t-130 -173.5t-73.5 -189.5l139 111q35 14 79 25.5t105 11.5q84 0 157 -27t127 -80t86 -132t32 -181q0 -100 -29 -183t-84 -140.5t-134 -89.5t-177 -32t-179 36t-137.5 105.5 t-88 172t-31.5 235.5zM238 504q0 -229 77.5 -333.5t237.5 -104.5q141 0 216 72.5t75 246.5v47q0 86 -19.5 144.5t-58.5 94.5t-94.5 50t-126.5 14q-98 0 -166.5 -32.5t-138.5 -75.5q-2 -10 -2 -23v-24v-76z" />
<glyph unicode="7" horiz-adv-x="935" d="M63 1231v102h785v-137l-502 -1196h-131l477 1128l82 115l-145 -12h-566z" />
<glyph unicode="8" horiz-adv-x="1069" d="M102 328q0 102 38 170.5t91 111.5l189 86q-113 53 -182.5 136t-69.5 204q0 72 27.5 130.5t77 101.5t116 66.5t141.5 23.5q86 0 154 -23.5t116 -64.5t73.5 -97.5t25.5 -121.5q0 -80 -18.5 -133.5t-61.5 -106.5l-182 -92q68 -29 127 -60.5t104 -74.5t72 -100.5t27 -135.5 q0 -86 -33 -155.5t-90.5 -118.5t-136 -76t-172.5 -27q-203 0 -318 95.5t-115 261.5zM225 326q0 -129 79 -194.5t228 -65.5q154 0 231 70.5t77 197.5v28q0 57 -19.5 96.5t-62.5 71t-112 62.5t-167 72q-139 -66 -196.5 -136.5t-57.5 -179.5v-22zM289 1036q0 -100 71 -164.5 t218 -123.5q70 35 110.5 64.5t61 62t25.5 70.5t5 89v13q0 94 -57 151t-191 57q-70 0 -115.5 -16t-74.5 -45t-41 -65.5t-12 -79.5v-13z" />
<glyph unicode="9" horiz-adv-x="1075" d="M102 913q0 102 29 184.5t84 139.5t134 89t177 32t178 -34t137.5 -102.5t89.5 -171t32 -241.5q0 -150 -49.5 -272.5t-125 -223t-169 -177.5t-181.5 -136h-190q104 59 199.5 129t172 149.5t131 169t74.5 185.5l-137 -103q-35 -14 -79 -25t-105 -11q-84 0 -157 26.5 t-127 79.5t-86 132t-32 181zM231 897q0 -174 78 -242.5t221 -68.5q96 0 166 32.5t140 73.5q0 16 1 29.5t1 28.5v75q0 117 -19.5 199t-58.5 133t-98.5 74.5t-139.5 23.5q-139 0 -215 -69.5t-76 -241.5v-47z" />
<glyph unicode=":" horiz-adv-x="493" d="M129 100q0 53 35 87t82 34q49 0 84 -33.5t35 -87.5q0 -53 -35 -85.5t-84 -32.5q-47 0 -82 32.5t-35 85.5zM129 715q0 53 35 87t82 34q49 0 84 -34t35 -87t-35 -86t-84 -33q-47 0 -82 33t-35 86z" />
<glyph unicode=";" horiz-adv-x="493" d="M129 100q0 53 35 87t82 34q49 0 84 -33.5t35 -87.5q0 -51 -24 -97t-48 -85l-100 -154l-50 25l90 217l-69 10q-14 14 -24.5 34t-10.5 50zM129 715q0 53 35 87t82 34q49 0 84 -34t35 -87t-35 -86t-84 -33q-47 0 -82 33t-35 86z" />
<glyph unicode="&#x3c;" horiz-adv-x="884" d="M94 506v139l680 320v-125l-455 -209l-180 -60l180 -59l455 -213v-117z" />
<glyph unicode="=" horiz-adv-x="944" d="M123 397v107h698v-107h-698zM123 723v106h698v-106h-698z" />
<glyph unicode="&#x3e;" horiz-adv-x="884" d="M111 182v125l454 209l180 59l-180 60l-454 213v117l680 -324v-139z" />
<glyph unicode="?" horiz-adv-x="868" d="M61 1362q47 23 133.5 49.5t190.5 26.5q176 0 271.5 -88t95.5 -277q0 -88 -19.5 -153.5t-62.5 -112.5t-113 -78t-172 -51v-322h-80l-35 271q-6 51 4.5 76.5t63.5 41.5q92 27 148.5 50.5t86 57.5t40 84t10.5 130v16q0 72 -11.5 119t-39 76t-77 41t-126.5 12 q-80 0 -145.5 -15.5t-143.5 -43.5zM242 94q0 51 33.5 83t76.5 32q47 0 80 -32t33 -83q0 -49 -33 -80.5t-80 -31.5q-43 0 -76.5 31.5t-33.5 80.5z" />
<glyph unicode="@" horiz-adv-x="1562" d="M102 516q0 397 176.5 600t546.5 203q184 0 307 -50t196 -140.5t102.5 -217.5t29.5 -278q0 -311 -94 -462t-299 -151q-35 0 -57.5 3.5t-38.5 7.5l-45 116l-99 -104q-45 -16 -92 -23.5t-90 -7.5q-109 0 -181.5 60.5t-72.5 187.5q0 168 96.5 250t315.5 98l194 15l21 118 q10 55 10 97q0 43 -15.5 71.5t-50 43t-96.5 14.5q-70 0 -143.5 -13.5t-151.5 -33.5v90q82 29 152 42t151 13q84 0 138.5 -24.5t83 -71.5t34 -115t-9.5 -152l-90 -520q-8 -45 5.5 -61.5t51.5 -16.5h19q125 0 189.5 121t64.5 387v43q0 131 -22.5 237.5t-82 183.5t-165 119 t-269.5 42q-166 0 -283.5 -41t-191.5 -127t-107.5 -217t-33.5 -311v-43q0 -176 31.5 -306.5t103.5 -216.5t186.5 -129t282.5 -43q129 0 238.5 28t224.5 69l26 -82q-82 -37 -206.5 -69t-278.5 -32q-365 0 -538 198t-173 601zM510 305q-16 -100 21 -150.5t135 -50.5 q94 0 155.5 34t104.5 75l57 334l-184 -17q-74 -6 -125 -19t-83 -36.5t-50.5 -61.5t-28.5 -96z" />
<glyph unicode="A" horiz-adv-x="1144" d="M80 0l426 1333h143l420 -1333h-133l-92 307h-553l-96 -307h-115zM322 406h491l-182 602l-53 280l-66 -280z" />
<glyph unicode="B" horiz-adv-x="1101" d="M184 0v1333h383q86 0 158 -20.5t125 -63.5t83 -109.5t30 -156.5q0 -72 -21.5 -122t-55.5 -84t-73 -55.5t-76 -33.5q41 -8 86 -31.5t84 -62.5t63.5 -94.5t24.5 -126.5q0 -100 -33.5 -172t-90 -116t-130 -64.5t-153.5 -20.5h-404zM309 104h262q141 0 214 57.5t73 198.5v19 q0 141 -64.5 199.5t-215.5 58.5h-269v-533zM309 733h262q74 0 125.5 13.5t82 42t44 74.5t13.5 112v14q0 131 -62.5 185.5t-224.5 54.5h-240v-496z" />
<glyph unicode="C" horiz-adv-x="1011" d="M109 670q0 147 28.5 273t90 218t155.5 144.5t225 52.5q100 0 171 -18.5t143 -47.5l-21 -100q-47 12 -86 23.5t-73.5 18.5t-70.5 11t-79 4q-70 0 -133.5 -26.5t-110.5 -90t-75.5 -170t-28.5 -266.5v-39q0 -160 23.5 -271.5t68.5 -181t109.5 -100t146.5 -30.5q51 0 91 5 t76 14t71.5 22.5t78.5 27.5l35 -96q-78 -35 -156 -55.5t-184 -20.5q-135 0 -230 53.5t-153.5 146.5t-85 221t-26.5 278z" />
<glyph unicode="D" horiz-adv-x="1185" d="M184 0v1333h340q281 0 417 -170t136 -493q0 -344 -137 -507t-434 -163h-322zM311 98h181q113 0 197.5 22.5t141 84t85 170t28.5 280.5v37q0 158 -27.5 261.5t-84 164t-142.5 85t-203 24.5h-176v-1129z" />
<glyph unicode="E" horiz-adv-x="999" d="M184 0v1333h688v-104h-561v-490h490v-98h-490v-537h596v-104h-723z" />
<glyph unicode="F" horiz-adv-x="980" d="M184 0v1333h688v-104h-561v-522h500v-99h-500v-608h-127z" />
<glyph unicode="G" horiz-adv-x="1126" d="M109 670q0 147 29.5 273t92 218t158.5 144.5t229 52.5q106 0 184.5 -18.5t151.5 -49.5l-20 -102q-47 14 -88 25.5t-80 19.5t-78 12t-82 4q-76 0 -142.5 -26.5t-115.5 -90t-77.5 -170t-28.5 -266.5v-39q0 -160 24.5 -271.5t70.5 -181t114.5 -100t154.5 -30.5 q90 0 152.5 13t103.5 28v456h-215v103h342v-690h-51l-39 92l-106 -88q-41 -8 -87.5 -12.5t-87.5 -4.5q-139 0 -236 53.5t-157.5 146.5t-88 221t-27.5 278z" />
<glyph unicode="H" horiz-adv-x="1206" d="M184 0v1333h127v-600h584v600h127v-1333h-127v635h-584v-635h-127z" />
<glyph unicode="I" horiz-adv-x="516" d="M195 0v1333h127v-1333h-127z" />
<glyph unicode="J" horiz-adv-x="675" d="M70 18l16 93q39 -16 73 -26.5t74 -10.5q35 0 60.5 10t44 36.5t28 71t9.5 113.5v1028h127v-983q0 -104 -17.5 -177t-50.5 -118t-78 -64.5t-100 -19.5q-59 0 -108.5 15.5t-77.5 31.5z" />
<glyph unicode="K" horiz-adv-x="1089" d="M184 0v1333h129v-510l-24 -200l573 710h142l-508 -612l149 -117l375 -604h-146l-421 688l-140 -168v-520h-129z" />
<glyph unicode="L" horiz-adv-x="958" d="M184 0v1333h127v-1231h574v-102h-701z" />
<glyph unicode="M" horiz-adv-x="1447" d="M184 0v1333h181l297 -1011l55 -281l51 281l311 1011h185v-1333h-125v864l22 434l-82 -327l-301 -971h-139l-287 954l-71 344l20 -434v-864h-117z" />
<glyph unicode="N" d="M184 0v1333h146l475 -913l131 -350l-29 391v872h119v-1333h-139l-498 954l-113 318l27 -348v-924h-119z" />
<glyph unicode="O" d="M109 670q0 154 30.5 279.5t93 216.5t155.5 141.5t218 50.5q123 0 216 -49t155.5 -139.5t93.5 -216.5t31 -279q0 -338 -122 -520.5t-378 -182.5q-125 0 -218 50.5t-154.5 141.5t-91 220t-29.5 287zM242 657q0 -160 23.5 -271.5t69.5 -182t114.5 -102t156.5 -31.5 t155.5 32.5t114 104.5t70 184.5t23.5 272.5v41q0 285 -91.5 414.5t-273.5 129.5q-180 0 -271 -134t-91 -419v-39z" />
<glyph unicode="P" horiz-adv-x="1062" d="M184 0v1333h389q109 0 187 -30.5t127 -85t72.5 -127t23.5 -156.5q0 -82 -22.5 -155.5t-71.5 -129t-127 -88.5t-189 -33h-262v-528h-127zM311 621h248q158 0 222.5 71.5t64.5 235.5v16q0 158 -65.5 221.5t-225.5 63.5h-244v-608z" />
<glyph unicode="Q" d="M109 670q0 154 30.5 279.5t93 216.5t155.5 141.5t218 50.5q123 0 216 -50.5t155.5 -141.5t93.5 -216t31 -276q0 -233 -57.5 -394t-190.5 -245l-154 -15l244 -260l-145 -41l-189 252h-8q-125 0 -218 50.5t-154.5 141.5t-91 220t-29.5 287zM242 657q0 -160 23.5 -271.5 t69.5 -182t114.5 -103t156.5 -32.5q176 0 269.5 138t93.5 458v41q0 285 -91.5 414.5t-273.5 129.5q-180 0 -271 -134t-91 -419v-39z" />
<glyph unicode="R" horiz-adv-x="1105" d="M184 0v1333h389q109 0 187 -28.5t127 -79.5t72.5 -122t23.5 -153q0 -61 -15.5 -124.5t-55.5 -117t-107.5 -91t-169.5 -44.5l106 -88l265 -485h-144l-297 561h-256v-561h-125zM309 653h250q78 0 133.5 15.5t89 50.5t49 90t15.5 135v17q0 78 -15.5 129t-50.5 81.5t-90 44 t-135 13.5h-246v-576z" />
<glyph unicode="S" horiz-adv-x="993" d="M111 66l26 92q84 -39 160 -62.5t174 -23.5q72 0 125 12t89 43t54.5 82t18.5 129q0 57 -11.5 99t-40 74t-80 56.5t-128.5 48.5q-92 29 -163 60t-118 74t-70.5 105.5t-23.5 154.5q0 174 100.5 261t278.5 87q119 0 193.5 -19.5t138.5 -48.5l-25 -98q-41 14 -75 24.5 t-69.5 17.5t-77.5 11t-98 4q-125 0 -185 -50t-60 -181q0 -59 10 -99t40 -70t82 -53.5t136 -50.5q86 -27 155.5 -59.5t118 -77.5t75 -109.5t26.5 -156.5q0 -184 -106.5 -277.5t-282.5 -93.5q-147 0 -236.5 29t-150.5 66z" />
<glyph unicode="T" horiz-adv-x="950" d="M57 1229v104h836v-104h-354v-1229h-127v1229h-355z" />
<glyph unicode="U" horiz-adv-x="1183" d="M174 496v837h127v-884q0 -119 14.5 -193t46 -115t83 -56t124.5 -15q106 0 176 30.5t127 67.5v1165h127v-1333h-61l-51 123l-76 -96q-37 -16 -105.5 -36t-152.5 -20q-104 0 -177 31t-118 94.5t-64.5 162.5t-19.5 237z" />
<glyph unicode="V" horiz-adv-x="1148" d="M80 1333h131l309 -1007l60 -281l59 281l313 1007h117l-422 -1333h-143z" />
<glyph unicode="W" horiz-adv-x="1482" d="M72 1333h127l180 -858l59 -438l58 399l174 897h149l185 -897l57 -399l63 438l187 858h112l-301 -1333h-145l-189 889l-45 401l-51 -401l-184 -889h-141z" />
<glyph unicode="X" horiz-adv-x="1044" d="M74 0l379 686l-363 647h137l222 -397l86 -199l75 199l215 397h119l-360 -643l387 -690h-137l-244 440l-90 195l-70 -195l-237 -440h-119z" />
<glyph unicode="Y" horiz-adv-x="1038" d="M61 1333h138l270 -600l61 -229l66 229l262 600h119l-383 -852v-481h-127v473z" />
<glyph unicode="Z" horiz-adv-x="1003" d="M102 0v137l627 1004l80 98l-156 -10h-522v104h762v-145l-619 -989l-98 -115l176 20h543v-104h-793z" />
<glyph unicode="[" horiz-adv-x="514" d="M143 -205v1675h289v-92h-176v-1491h176v-92h-289z" />
<glyph unicode="\" horiz-adv-x="782" d="M31 1470h106l615 -1675h-107z" />
<glyph unicode="]" horiz-adv-x="514" d="M82 -113h176v1491h-176v92h289v-1675h-289v92z" />
<glyph unicode="^" horiz-adv-x="1064" d="M176 874l273 541h137l274 -541h-125l-174 371l-45 139l-45 -139l-180 -371h-115z" />
<glyph unicode="_" horiz-adv-x="516" d="M10 -242h496v-90h-496v90z" />
<glyph unicode="`" horiz-adv-x="468" d="M125 1126q0 45 17.5 85t41.5 77l109 168l41 -20l-86 -222l61 -8q14 -14 24.5 -31.5t10.5 -48.5q0 -49 -31.5 -80.5t-76.5 -31.5t-78 31.5t-33 80.5z" />
<glyph unicode="a" horiz-adv-x="964" d="M98 279q0 158 91.5 230.5t279.5 88.5l201 16v125q0 53 -8.5 97.5t-30 76t-59 50t-99.5 18.5q-78 0 -151.5 -18.5t-151.5 -44.5l-18 94q78 31 151.5 51t167.5 20q166 0 239.5 -93t73.5 -292v-546q0 -47 17.5 -64.5t58.5 -17.5h35l4 -72q-12 -6 -33.5 -12t-50.5 -6 q-41 0 -76 14l-65 112l-99 -106q-29 -12 -71.5 -20.5t-89.5 -8.5q-68 0 -125.5 16.5t-99.5 52.5t-66.5 94.5t-24.5 144.5zM217 268q0 -109 50 -154.5t161 -45.5q92 0 148.5 34.5t93.5 79.5v353l-193 -19q-137 -12 -198.5 -62.5t-61.5 -170.5v-15z" />
<glyph unicode="b" horiz-adv-x="1028" d="M168 -6v1476h117v-512q45 45 112.5 85t165.5 40q168 0 265.5 -130t97.5 -410q0 -305 -101.5 -438.5t-283.5 -133.5q-51 0 -90 9.5t-62 17.5l-127 108l-41 -112h-53zM285 156q53 -41 111.5 -67t129.5 -26q70 0 122 24t87 78t52.5 142t17.5 217v29q0 129 -18.5 213 t-52.5 132t-81 67.5t-102 19.5q-51 0 -93 -11t-74 -28.5t-56.5 -38t-42.5 -39.5v-712z" />
<glyph unicode="c" horiz-adv-x="849" d="M102 535q0 285 99.5 416.5t292.5 131.5q78 0 147.5 -17t128.5 -42l-20 -94q-78 25 -133.5 39t-114.5 14q-68 0 -119 -18.5t-86 -66.5t-53.5 -132t-18.5 -213v-27q0 -133 18.5 -222t54.5 -141t87 -73.5t117 -21.5q37 0 65.5 5t56 14t58.5 22.5t68 31.5l30 -88 q-51 -31 -125.5 -56.5t-160.5 -25.5q-190 0 -291 137.5t-101 426.5z" />
<glyph unicode="d" horiz-adv-x="1019" d="M102 543q0 276 100.5 408t266.5 132q92 0 157.5 -33.5t108.5 -72.5v493h117v-1470h-57l-54 127l-120 -117q-23 -10 -62 -20t-94 -10q-178 0 -270.5 141t-92.5 422zM223 524q0 -127 17.5 -213t51.5 -139t83 -76.5t110 -23.5q76 0 128.5 29.5t121.5 82.5v701 q-18 14 -42.5 31.5t-56.5 33t-71 25.5t-82 10q-61 0 -110 -18.5t-82 -67.5t-50.5 -133t-17.5 -213v-29z" />
<glyph unicode="e" horiz-adv-x="970" d="M102 530q0 147 30 252t83 172.5t127 98t162 30.5q182 0 271 -132t89 -353v-100h-639q0 -121 19.5 -203t56.5 -133t93.5 -72.5t129.5 -21.5q70 0 133.5 19t137.5 54l26 -90q-47 -27 -130 -53.5t-175 -26.5q-205 0 -309.5 137.5t-104.5 421.5zM225 594h518v27 q0 201 -60 283.5t-179 82.5q-57 0 -107.5 -16.5t-87.5 -59.5t-58.5 -119.5t-25.5 -197.5z" />
<glyph unicode="f" horiz-adv-x="591" d="M61 963v100h136v180q0 129 56 185.5t144 56.5q59 0 104.5 -13.5t82.5 -31.5l-6 -62h-172q-53 0 -74 -24.5t-21 -75.5v-215h244v-100h-244v-963h-114v963h-136z" />
<glyph unicode="g" horiz-adv-x="999" d="M84 -94q0 66 22.5 103.5t38.5 56.5l125 63q-45 12 -88 53t-43 129q0 53 16.5 83t26.5 44l101 47l-117 72q-20 39 -32.5 88t-12.5 103q0 94 34.5 157.5t88 103.5t119 57t126.5 17t127 -17t121 -60l224 84v-144h-242l119 -86q8 -27 12 -49.5t4 -56.5q0 -96 -30.5 -162 t-82 -106t-117 -57t-135.5 -17q-47 0 -94 8t-90 29q-25 -18 -44 -46t-19 -69q0 -119 149 -119h232q150 0 228.5 -66.5t78.5 -183.5q0 -78 -33 -138t-93.5 -102t-143 -64.5t-185.5 -22.5q-193 0 -292 74.5t-99 193.5zM193 -86q0 -92 71.5 -135t210.5 -43q172 0 256 65.5 t84 153.5v8q0 61 -37 105.5t-141 44.5h-315q-59 -39 -94 -85t-35 -114zM242 743q0 -125 58 -182t189 -57q129 0 186.5 57t57.5 180v13q0 104 -57.5 168.5t-186.5 64.5q-131 0 -189 -63.5t-58 -167.5v-13z" />
<glyph unicode="h" horiz-adv-x="1028" d="M168 0v1470h117v-534l88 98q35 16 85 32.5t124 16.5q63 0 115.5 -17t90 -56t59 -101.5t21.5 -154.5v-754h-116v778q0 59 -14.5 99.5t-39 64t-58.5 33.5t-75 10q-92 0 -153.5 -28.5t-126.5 -77.5v-879h-117z" />
<glyph unicode="i" horiz-adv-x="466" d="M141 1384q0 41 28 68t64 27q37 0 65 -27t28 -68t-28 -67.5t-65 -26.5t-64.5 26.5t-27.5 67.5zM174 0v1063h117v-1063h-117z" />
<glyph unicode="j" horiz-adv-x="450" d="M-49 -307l10 61h113q53 0 73.5 28t20.5 79v1202h115v-1169q0 -129 -53.5 -185.5t-133.5 -56.5q-47 0 -84 12t-61 29zM133 1384q0 41 27.5 68t64.5 27t64.5 -27t27.5 -68t-27.5 -67.5t-64.5 -26.5t-64.5 26.5t-27.5 67.5z" />
<glyph unicode="k" horiz-adv-x="907" d="M168 0v1470h117v-743l-27 -268l457 604h129l-350 -455l127 -155l247 -453h-133l-309 555l-141 -197v-358h-117z" />
<glyph unicode="l" horiz-adv-x="479" d="M180 0v1470h119v-1470h-119z" />
<glyph unicode="m" horiz-adv-x="1558" d="M168 0v1063h57l54 -127l86 98q31 16 80 32.5t120 16.5q59 0 103.5 -12t85.5 -37l69 -108l99 108q29 16 81 32.5t119 16.5q125 0 201 -73.5t76 -255.5v-754h-117v778q0 59 -12.5 99.5t-35 64t-55 33.5t-73.5 10q-88 0 -146.5 -29.5t-117.5 -78.5v-877h-117v778 q0 59 -13.5 99.5t-37 64t-55 33.5t-70.5 10q-84 0 -144.5 -27.5t-119.5 -74.5v-883h-117z" />
<glyph unicode="n" horiz-adv-x="1028" d="M168 0v1063h57l56 -131l92 102q35 16 85 32.5t124 16.5q63 0 115.5 -17t90 -56t59 -101.5t21.5 -154.5v-754h-116v778q0 59 -14.5 99.5t-39 64t-58.5 33.5t-75 10q-92 0 -153.5 -28.5t-126.5 -77.5v-879h-117z" />
<glyph unicode="o" horiz-adv-x="1015" d="M102 528q0 137 31 241.5t84 174.5t129 104.5t164 34.5q90 0 164 -34.5t127 -104.5t82.5 -172t29.5 -237q0 -279 -109.5 -421.5t-293.5 -142.5q-92 0 -167 36t-128 106.5t-83 175t-30 239.5zM225 522q0 -125 21.5 -212t59.5 -141t90.5 -78.5t113.5 -24.5t112.5 24.5 t89.5 77.5t58.5 138t20.5 206v27q0 129 -19.5 214t-56.5 137t-88.5 73.5t-116.5 21.5q-66 0 -118 -21.5t-89 -72.5t-57.5 -135t-20.5 -207v-27z" />
<glyph unicode="p" horiz-adv-x="1028" d="M168 -332v1395h57l54 -127l98 104q41 16 85 29.5t103 13.5q174 0 267.5 -136t93.5 -417q0 -268 -100.5 -397t-264.5 -129q-96 0 -163.5 36t-112.5 75v-447h-117zM285 197q18 -14 42.5 -32t57.5 -33t73 -25.5t85 -10.5q123 0 192.5 96.5t69.5 327.5v29q0 125 -16.5 209 t-48 134t-80 71.5t-111.5 21.5q-78 0 -137.5 -24.5t-126.5 -77.5v-686z" />
<glyph unicode="q" horiz-adv-x="1028" d="M102 530q0 279 98.5 416t268.5 137q57 0 104.5 -11t85.5 -28l105 -100l43 119h53v-1395h-117v449q-45 -39 -112.5 -76t-163.5 -37q-164 0 -264.5 131t-100.5 395zM223 520q0 -233 68.5 -328.5t193.5 -95.5q47 0 86 10.5t72 25.5t57.5 32.5t42.5 32.5v692 q-63 47 -126.5 71.5t-137.5 24.5q-59 0 -106 -20.5t-81 -70.5t-51.5 -134t-17.5 -211v-29z" />
<glyph unicode="r" horiz-adv-x="727" d="M168 0v1063h57l56 -129l102 110q41 18 78 28.5t78 10.5q49 0 83.5 -8t55.5 -18l-25 -111q-35 14 -66.5 21.5t-80.5 7.5q-70 0 -120 -30t-101 -73v-872h-117z" />
<glyph unicode="s" horiz-adv-x="804" d="M92 39l21 92q53 -25 122.5 -45t149.5 -20q98 0 157.5 45t59.5 157q0 51 -9 86t-36 59.5t-75 44t-126 42.5q-57 16 -106 38.5t-83 55.5t-53.5 81t-19.5 118q0 145 86 217.5t230 72.5q88 0 156.5 -17t115.5 -42l-20 -88q-31 10 -57.5 19.5t-55.5 15.5t-62.5 10t-78.5 4 q-96 0 -148.5 -38t-52.5 -150q0 -51 12 -83t39 -53.5t69 -36t101 -32.5q72 -20 126 -46t90 -63t54.5 -88t18.5 -125q0 -63 -20.5 -118.5t-62.5 -95.5t-103.5 -62.5t-143.5 -22.5q-104 0 -177 21.5t-118 46.5z" />
<glyph unicode="t" horiz-adv-x="624" d="M53 963v100h137l54 287h57v-287h238v-100h-238v-787q0 -55 17.5 -76.5t70.5 -21.5h166l6 -60q-47 -16 -96.5 -27t-108.5 -11q-92 0 -132 50t-40 165v768h-131z" />
<glyph unicode="u" horiz-adv-x="1019" d="M160 309v754h116v-778q0 -121 51.5 -167t131.5 -46q92 0 154.5 27.5t121.5 78.5v885h117v-1063h-57l-56 123l-86 -98q-33 -16 -85 -30.5t-126 -14.5q-61 0 -113.5 17t-89 56t-58 101.5t-21.5 154.5z" />
<glyph unicode="v" horiz-adv-x="897" d="M51 1063h121l223 -754l54 -276l53 276l227 754h117l-334 -1063h-131z" />
<glyph unicode="w" horiz-adv-x="1312" d="M51 1063h117l184 -770l33 -246l51 322l166 694h133l164 -694l43 -322l33 246l180 770h107l-263 -1063h-122l-166 698l-47 312l-48 -312l-178 -698h-123z" />
<glyph unicode="x" horiz-adv-x="886" d="M66 0l313 547l-301 516h125l172 -295l84 -190l69 190l160 295h117l-301 -522l317 -541h-125l-182 313l-88 191l-76 -191l-168 -313h-116z" />
<glyph unicode="y" horiz-adv-x="897" d="M51 1063h121l225 -721l52 -274l55 274l225 721h117l-447 -1395h-116l104 357z" />
<glyph unicode="z" horiz-adv-x="833" d="M78 0v113l512 772l67 86l-159 -13h-389v105h647v-121l-514 -778l-76 -86l166 20h424v-98h-678z" />
<glyph unicode="{" horiz-adv-x="563" d="M68 588v102q90 4 135 46t45 138q0 33 -8.5 74t-18.5 89t-18 100.5t-8 107.5q0 63 16 108.5t44 75t62.5 43t73.5 13.5q33 0 60.5 -8.5t46.5 -18.5l-6 -74h-89q-59 0 -84.5 -38.5t-9.5 -137.5l43 -258q10 -55 7 -106t-24.5 -93t-62.5 -71t-108 -41q133 -23 172 -108 t18 -207l-41 -254q-16 -100 7.5 -146.5t82.5 -46.5h89l6 -70q-18 -10 -45 -18t-60 -8q-39 0 -74.5 13t-63.5 42t-44 73t-16 103t8 114.5t18 105t18.5 90t8.5 73.5q0 186 -180 193z" />
<glyph unicode="|" horiz-adv-x="366" d="M133 -205v1675h100v-1675h-100z" />
<glyph unicode="}" horiz-adv-x="563" d="M66 -193l6 70h88q59 0 84.5 41t9.5 139l-43 271q-8 57 -6 108t23.5 92t62.5 70t108 41q-68 12 -109.5 39t-63 67.5t-24.5 94t7 114.5l41 242q16 102 -7.5 145t-82.5 43h-88l-6 74q18 10 44.5 18.5t59.5 8.5q39 0 75 -12.5t63.5 -40t44 -71.5t16.5 -108q0 -59 -8.5 -112.5 t-18.5 -99.5t-18.5 -86t-8.5 -72q0 -186 181 -193v-102q-90 -4 -135.5 -46t-45.5 -139q0 -33 8.5 -75.5t18.5 -93t18.5 -104.5t8.5 -110q0 -66 -16.5 -111.5t-44 -74.5t-62.5 -41t-74 -12q-33 0 -60.5 8t-45.5 18z" />
<glyph unicode="~" horiz-adv-x="819" d="M121 573q0 158 44 225.5t114 67.5q47 0 81.5 -30.5t65.5 -65.5l66 -70q27 -29 37 -33.5t26 -4.5q29 0 39 38.5t10 112.5v31h94q0 -156 -44.5 -223.5t-112.5 -67.5q-47 0 -82 30.5t-66 65.5l-65 70q-27 29 -37 34t-27 5q-29 0 -39 -39t-10 -113v-33h-94z" />
<glyph unicode="&#xa1;" horiz-adv-x="522" d="M150 971q0 49 32.5 80.5t79.5 31.5q43 0 77 -31.5t34 -80.5q0 -51 -34 -83t-77 -32q-47 0 -79.5 32t-32.5 83zM197 217l34 492h60l35 -492v-549h-129v549z" />
<glyph unicode="&#xa2;" horiz-adv-x="849" d="M102 535q0 285 99.5 416.5t292.5 131.5q70 0 139 -16l82 266l94 -26l-379 -1233q35 -6 72 -6t65.5 5t56 14t58.5 22.5t68 31.5l30 -88q-51 -31 -125.5 -56.5t-160.5 -25.5q-53 0 -93 9l-77 -256l-91 28l78 258q-102 55 -155.5 183.5t-53.5 341.5zM225 526q0 -174 31 -270 t86 -143l262 858q-51 12 -102 12q-68 0 -119 -18.5t-86 -66.5t-53.5 -132t-18.5 -213v-27z" />
<glyph unicode="&#xa3;" horiz-adv-x="913" d="M82 616v101h147q-35 68 -61.5 143.5t-26.5 171.5q0 61 20.5 120.5t65.5 105t115 73t170 27.5q121 0 198.5 -26.5t139.5 -59.5l-31 -92q-59 29 -126.5 51t-162.5 22q-70 0 -119 -11t-79.5 -36.5t-45 -68.5t-14.5 -107v-22q0 -84 29 -153t64 -138h335v-101h-290 q16 -41 26 -86t10 -94q0 -143 -133 -272l-166 -86l226 24h473v-102h-744v125q43 29 84 55.5t72 59t50.5 77.5t19.5 111q0 51 -13.5 97t-35.5 91h-197z" />
<glyph unicode="&#xa4;" horiz-adv-x="616" d="M-68 0l646 1333h106l-645 -1333h-107z" />
<glyph unicode="&#xa5;" horiz-adv-x="1126" d="M86 424v100h393l-100 219h-293v101h246l-226 489h134l264 -600l59 -270l68 270l256 600h110l-215 -489h258v-101h-301l-96 -219h397v-100h-415v-424h-123v424h-416z" />
<glyph unicode="&#xa6;" horiz-adv-x="366" d="M133 -205v785h100v-785h-100zM133 690v780h100v-780h-100z" />
<glyph unicode="&#xa7;" horiz-adv-x="927" d="M90 510q0 78 33 132t88 91l156 35q-76 35 -129.5 99.5t-53.5 179.5q0 141 86 226t230 85q88 0 155.5 -16.5t116.5 -43.5l-24 -88q-31 10 -56.5 19.5t-54.5 15.5t-61.5 10.5t-77.5 4.5q-96 0 -148.5 -48.5t-52.5 -160.5q0 -51 13.5 -86t43 -61.5t75.5 -46t110 -40.5 q74 -23 129 -49.5t93 -63t57.5 -88t19.5 -120.5q0 -78 -33 -132.5t-88 -91.5l-156 -41q72 -37 122 -104.5t50 -177.5q0 -141 -86 -226t-229 -85q-88 0 -155.5 16t-117.5 43l23 86q31 -12 57.5 -21.5t55 -15.5t61.5 -10t78 -4q96 0 148.5 50t52.5 163q0 51 -13.5 88t-43 64.5 t-75 49t-110.5 41.5q-74 23 -128 49.5t-90 63.5t-53.5 88t-17.5 121zM205 512q0 -51 9 -87t35.5 -61.5t75 -46t126.5 -43.5q12 -4 24.5 -8t24.5 -8q111 35 167 86t56 150q0 53 -11.5 87.5t-40 60.5t-77.5 46.5t-127 42.5l-37 12q-115 -31 -170 -80t-55 -151z" />
<glyph unicode="&#xa8;" horiz-adv-x="1056" d="M78 461v100h151q0 27 -1 53.5t-1 55.5v43q0 23 2 45h-151v100h162q14 111 48 202t89 157.5t132 103.5t177 37q92 0 160.5 -17.5t140.5 -44.5l-22 -100q-47 16 -85 26.5t-71 17.5t-65.5 10t-69.5 3q-59 0 -110.5 -19.5t-91.5 -65.5t-67.5 -121.5t-39.5 -188.5h417v-100 h-426v-62v-39v-49q0 -25 2 -47h424v-100h-415q23 -213 99.5 -303t207.5 -90q47 0 83 4t68.5 13t67.5 22.5t78 29.5l35 -90q-76 -37 -148 -56.5t-172 -19.5q-104 0 -182 35t-132.5 99.5t-86 154.5t-45.5 201h-162z" />
<glyph unicode="&#xa9;" horiz-adv-x="1261" d="M98 670q0 160 34 287.5t100.5 217t167 136.5t231.5 47q264 0 398 -180.5t134 -503.5q1 -703 -536 -703q-266 0 -397.5 183.5t-131.5 515.5zM170 670q0 -326 109.5 -478.5t347.5 -152.5q121 0 208 35t144 110.5t85 196.5t28 293q0 317 -114 466.5t-347 149.5 q-236 0 -348.5 -153.5t-112.5 -466.5zM301 670q0 102 19.5 190t59.5 152.5t103.5 101.5t151.5 37q35 0 63.5 -3t55 -9t52 -15.5t56.5 -19.5l-14 -88q-37 10 -64.5 18t-51 12.5t-46 6.5t-51.5 2q-45 0 -85 -19.5t-68.5 -63.5t-46 -114t-17.5 -170v-26q0 -205 56 -297.5 t161 -92.5q31 0 56.5 4.5t50 10.5t51 16t59.5 23l31 -76q-66 -39 -121 -54.5t-127 -15.5q-92 0 -155.5 38t-103.5 104.5t-57.5 155.5t-17.5 192z" />
<glyph unicode="&#xaa;" horiz-adv-x="780" d="M125 1126q0 45 17.5 85t41.5 77l109 168l41 -20l-86 -222l61 -8q14 -14 24.5 -31.5t10.5 -48.5q0 -49 -31.5 -80.5t-76.5 -31.5t-78 31.5t-33 80.5zM436 1126q0 45 17.5 85t42.5 77l108 168l41 -20l-86 -222l62 -8q14 -14 24 -31.5t10 -48.5q0 -49 -31.5 -80.5 t-76.5 -31.5t-78 31.5t-33 80.5z" />
<glyph unicode="&#xab;" horiz-adv-x="892" d="M100 352v111l269 352h127l-230 -305l-94 -102l94 -101l230 -307h-125zM424 352v111l268 352h127l-229 -305l-94 -102l94 -101l229 -307h-125z" />
<glyph unicode="&#xac;" horiz-adv-x="1216" d="M-31 666h60q10 -102 18 -215t21.5 -207t33 -155.5t52.5 -61.5t52 61.5t32.5 155.5t22.5 206.5t18 215.5q16 178 28 308t30.5 215t46.5 127t73 42t72.5 -42t46 -127t32 -215t27.5 -308q10 -102 18.5 -215t21.5 -207t32.5 -155.5t52.5 -61.5t52 61.5t32.5 155.5t23 206.5 t17.5 215.5q16 178 28.5 308t31 215t46 127t72.5 42t73.5 -42t48 -127t34 -215t28.5 -308h-59q-8 102 -17.5 214.5t-22.5 207t-32.5 155t-52.5 60.5t-51.5 -60.5t-30.5 -155t-19.5 -207t-17.5 -214.5q-14 -178 -28.5 -308.5t-34 -216.5t-48 -128t-73.5 -42t-74 42t-48.5 128 t-32.5 216t-30 309q-8 102 -16 214.5t-20.5 207t-31 155t-50.5 60.5q-33 0 -51.5 -60.5t-31 -155t-19.5 -207t-17 -214.5q-14 -178 -28.5 -308.5t-34 -216.5t-48 -128t-73.5 -42t-74 42t-48.5 128t-33.5 216t-29 309z" />
<glyph unicode="&#xad;" horiz-adv-x="569" d="M74 0l229 305l94 103l-94 100l-229 307h125l270 -352v-111l-268 -352h-127z" />
<glyph unicode="&#xae;" horiz-adv-x="931" d="M82 862q0 231 96 363.5t289 132.5q190 0 286.5 -130t96.5 -364q0 -506 -387 -506q-195 0 -288 132.5t-93 371.5zM143 862q0 -229 77 -335.5t243 -106.5q168 0 246.5 101.5t78.5 342.5q0 223 -79.5 327.5t-241.5 104.5q-324 0 -324 -434zM301 571v586h176q98 0 140 -50 t42 -124q0 -29 -6 -55.5t-22.5 -49t-45 -38t-73.5 -21.5l53 -47l105 -201h-86l-117 242h-86v-242h-80zM381 864h90q59 0 83 28t24 87v6q0 55 -25 82t-82 27h-90v-230z" />
<glyph unicode="&#xaf;" horiz-adv-x="1036" d="M61 963v100h136v180q0 127 58 184.5t142 57.5q55 0 98.5 -14.5t75.5 -30.5l-6 -62h-159q-53 0 -74 -24.5t-21 -75.5v-215h244v-100h-244v-963h-114v963h-136zM739 0v1470h117v-1470h-117z" />
<glyph unicode="&#xb0;" horiz-adv-x="655" d="M94 1069q0 70 18.5 124t51.5 91t75 55.5t91 18.5q96 0 163.5 -74t67.5 -213q0 -141 -66.5 -216t-164.5 -75q-100 0 -168 74t-68 215zM195 1061q0 -119 36 -164t99 -45q61 0 96 44t35 157v30q0 117 -35 158t-96 41q-66 0 -100.5 -40t-34.5 -155v-26z" />
<glyph unicode="&#xb1;" horiz-adv-x="1579" d="M61 963v100h136v180q0 131 59 186.5t147 55.5q63 0 110.5 -13.5t86.5 -31.5l-6 -62h-188q-53 0 -74 -24.5t-21 -75.5v-215h201v-100h-201v-963h-114v963h-136zM610 963v100h129v180q0 127 58.5 184.5t142.5 57.5q55 0 103.5 -14.5t80.5 -30.5l-6 -62h-170 q-53 0 -73.5 -24.5t-20.5 -75.5v-215h244v-100h-244v-963h-115v963h-129zM1282 0v1470h117v-1470h-117z" />
<glyph unicode="&#xb2;" horiz-adv-x="665" d="M90 532v89l8 26q23 86 81.5 145.5t119.5 112.5q70 59 105.5 101.5t35.5 101.5v16q0 78 -32.5 105.5t-100.5 27.5q-53 0 -94 -13t-84 -32l-20 78q35 20 85 39t132 19q125 0 178 -64.5t53 -157.5q0 -49 -16.5 -89t-44 -73.5t-63.5 -63.5t-77 -62q-63 -49 -107 -94.5 t-61 -118.5l-4 -19l135 15h230v-89h-459z" />
<glyph unicode="&#xb3;" horiz-adv-x="700" d="M80 571l22 76q49 -20 89 -32.5t100 -12.5q86 0 128 35t42 113v14q0 84 -43 116.5t-142 32.5h-65v78h49q104 0 143 31t39 102v9q0 74 -35.5 100.5t-117.5 26.5q-53 0 -88 -9.5t-84 -25.5l-15 80q33 14 82 28.5t121 14.5q131 0 189.5 -58.5t58.5 -150.5q0 -80 -42 -120 t-120 -61q88 -16 137.5 -68t49.5 -145q0 -104 -71 -166.5t-196 -62.5q-84 0 -140 16.5t-91 38.5z" />
<glyph unicode="&#xb4;" horiz-adv-x="481" d="M123 702q0 53 35 87t82 34q49 0 83.5 -33.5t34.5 -87.5q0 -53 -34.5 -85.5t-83.5 -32.5q-47 0 -82 32.5t-35 85.5z" />
<glyph unicode="&#xb6;" horiz-adv-x="995" d="M86 1006q0 162 102.5 244.5t274.5 82.5h348v-1538h-102v1442h-166v-1442h-103v907l-137 -22q-102 29 -159.5 107.5t-57.5 218.5z" />
<glyph unicode="&#xb8;" horiz-adv-x="468" d="M125 100q0 49 31.5 81t76.5 32t78 -31.5t33 -81.5q0 -45 -17.5 -85t-41.5 -76l-109 -168l-41 20l86 221l-61 8q-14 14 -24.5 32t-10.5 48z" />
<glyph unicode="&#xb9;" horiz-adv-x="565" d="M100 535v75h117v580h-117v49l168 96h60v-725h112v-75h-340z" />
<glyph unicode="&#xba;" horiz-adv-x="780" d="M125 1325q0 49 31.5 81t76.5 32t78 -32t33 -81q0 -45 -17.5 -85t-41.5 -77l-109 -168l-41 21l86 221l-61 8q-14 14 -24.5 31.5t-10.5 48.5zM436 1325q0 49 32 81t77 32t77.5 -32t32.5 -81q0 -45 -17 -85t-42 -77l-109 -168l-41 21l86 221l-61 8q-14 14 -24.5 31.5 t-10.5 48.5z" />
<glyph unicode="&#xbb;" horiz-adv-x="892" d="M74 0l229 305l94 103l-94 100l-229 307h125l270 -352v-111l-268 -352h-127zM397 0l230 305l94 103l-94 100l-230 307h125l271 -352v-111l-269 -352h-127z" />
<glyph unicode="&#xbc;" horiz-adv-x="1632" d="M72 532v78h116v578h-116v49l168 96h59v-723h113v-78h-340zM360 0l734 1333h104l-733 -1333h-105zM954 199v55l334 547h142v-520h104v-82h-104v-199h-109v199h-367zM1067 281h254v288l10 181l-71 -154z" />
<glyph unicode="&#xbd;" horiz-adv-x="1632" d="M72 532v78h116v578h-116v49l168 96h59v-723h113v-78h-340zM342 0l733 1333h105l-734 -1333h-104zM1049 0v88l8 27q23 86 81 145t119 113q70 59 106 101t36 101v17q0 78 -33 105.5t-100 27.5q-53 0 -94.5 -13.5t-84.5 -31.5l-20 78q35 20 85 38.5t132 18.5 q125 0 178.5 -64.5t53.5 -156.5q0 -49 -16.5 -89t-44.5 -74t-63.5 -63.5t-76.5 -62.5q-63 -49 -107.5 -94t-60.5 -119l-4 -18l135 14h229v-88h-458z" />
<glyph unicode="&#xbe;" horiz-adv-x="1632" d="M82 571l22 76q49 -20 89 -32.5t100 -12.5q86 0 128 35t42 113v14q0 84 -43 116.5t-141 32.5h-66v78h49q104 0 143 31t39 102v9q0 74 -35.5 100.5t-117.5 26.5q-53 0 -88 -9.5t-84 -25.5l-15 80q33 14 82.5 28.5t120.5 14.5q131 0 189.5 -58.5t58.5 -150.5q0 -80 -42 -120 t-120 -61q88 -16 137.5 -68t49.5 -145q0 -104 -71 -166.5t-196 -62.5q-84 0 -140 16.5t-91 38.5zM438 0l733 1333h105l-733 -1333h-105zM995 199v55l334 547h141v-520h105v-82h-105v-199h-108v199h-367zM1108 281h254v288l10 181l-72 -154z" />
<glyph unicode="&#xbf;" horiz-adv-x="868" d="M117 2q0 88 19.5 152.5t62.5 110.5t112.5 77t171.5 51v316h80l35 -265q6 -51 -4 -76.5t-64 -41.5q-92 -27 -148 -49.5t-86 -55.5t-40 -82t-10 -129v-16q0 -72 11 -119t39 -76.5t78 -42t126 -12.5q80 0 145.5 15.5t142.5 43.5l19 -90q-47 -23 -133.5 -49t-190.5 -26 q-176 0 -271 89t-95 275zM403 971q0 49 33 80.5t80 31.5q43 0 77 -31.5t34 -80.5q0 -51 -34 -83t-77 -32q-47 0 -80 32t-33 83z" />
<glyph unicode="&#xc0;" horiz-adv-x="1144" d="M80 0l426 1333h143l420 -1333h-133l-92 307h-553l-96 -307h-115zM322 406h491l-182 602l-53 280l-66 -280zM334 1794h147l146 -336h-78z" />
<glyph unicode="&#xc1;" horiz-adv-x="1144" d="M80 0l426 1333h143l420 -1333h-133l-92 307h-553l-96 -307h-115zM322 406h491l-182 602l-53 280l-66 -280zM541 1458l145 336h148l-216 -336h-77z" />
<glyph unicode="&#xc2;" horiz-adv-x="1144" d="M80 0l426 1333h143l420 -1333h-133l-92 307h-553l-96 -307h-115zM313 1458l209 361h101l211 -361h-121l-99 184l-43 123l-43 -123l-108 -184h-107zM322 406h491l-182 602l-53 280l-66 -280z" />
<glyph unicode="&#xc3;" horiz-adv-x="1144" d="M80 0l426 1333h143l420 -1333h-133l-92 307h-553l-96 -307h-115zM322 406h491l-182 602l-53 280l-66 -280zM326 1491q0 121 45 178t102 57q66 0 117 -67l43 -55q14 -16 23.5 -24.5t23.5 -8.5q57 0 57 115v24h84q0 -121 -45 -178t-102 -57q-35 0 -62.5 16t-54.5 51l-43 55 q-14 16 -22.5 24.5t-24.5 8.5q-57 0 -57 -114v-25h-84z" />
<glyph unicode="&#xc4;" horiz-adv-x="1144" d="M80 0l426 1333h143l420 -1333h-133l-92 307h-553l-96 -307h-115zM319 1561q0 41 28 67.5t65 26.5t64.5 -26.5t27.5 -67.5t-27.5 -68t-64.5 -27t-65 27t-28 68zM322 406h491l-182 602l-53 280l-66 -280zM643 1561q0 41 27.5 67.5t64.5 26.5t64.5 -26.5t27.5 -67.5 t-27.5 -68t-64.5 -27t-64.5 27t-27.5 68z" />
<glyph unicode="&#xc5;" horiz-adv-x="1144" d="M80 0l405 1272q-49 23 -79.5 74t-30.5 129q0 109 56 166t142 57t142.5 -57.5t56.5 -165.5q0 -76 -28.5 -126.5t-75.5 -74.5l17 -54q17 -55 45 -144t64.5 -203.5t73.5 -235.5q88 -281 201 -637h-133l-92 307h-553l-96 -307h-115zM322 406h491l-182 602l-53 280l-66 -280z M467 1475q0 -88 28.5 -115t77.5 -27t78 26.5t29 115.5q0 90 -28.5 117.5t-78.5 27.5q-49 0 -77.5 -27.5t-28.5 -117.5z" />
<glyph unicode="&#xc6;" horiz-adv-x="1024" d="M293 1546h92v-28q0 -72 29.5 -110t97.5 -38t97.5 38t29.5 110v28h92q-2 -123 -55 -198.5t-164 -75.5t-164 75.5t-55 198.5z" />
<glyph unicode="&#xc7;" horiz-adv-x="1011" d="M109 670q0 147 28.5 273t90 218t155.5 144.5t225 52.5q100 0 171 -18.5t143 -47.5l-21 -100q-47 12 -86 23.5t-73.5 18.5t-70.5 11t-79 4q-70 0 -133.5 -26.5t-110.5 -90t-75.5 -170t-28.5 -266.5v-39q0 -160 23.5 -271.5t68.5 -181t109.5 -100t146.5 -30.5q51 0 91 5 t76 14t71.5 22.5t78.5 27.5l35 -96q-78 -35 -155.5 -55.5t-184.5 -20.5h-2l-59 -153l67 35q78 2 130.5 -40t52.5 -122q0 -45 -18.5 -79t-48.5 -55.5t-70 -31.5t-83 -10q-51 0 -98 14t-78 35l17 71q41 -16 78.5 -27t72.5 -11q66 0 91.5 20.5t25.5 60.5v17q0 41 -19.5 58.5 t-60.5 17.5q-35 0 -52.5 -8.5t-37.5 -24.5l-61 49l73 190q-113 14 -192.5 73t-128.5 150t-71.5 211.5t-22.5 258.5z" />
<glyph unicode="&#xc8;" horiz-adv-x="999" d="M184 0v1333h688v-104h-561v-490h490v-98h-490v-537h596v-104h-723zM301 1794h148l145 -336h-78z" />
<glyph unicode="&#xc9;" horiz-adv-x="999" d="M184 0v1333h688v-104h-561v-490h490v-98h-490v-537h596v-104h-723zM467 1458l145 336h148l-215 -336h-78z" />
<glyph unicode="&#xca;" horiz-adv-x="999" d="M184 0v1333h688v-104h-561v-490h490v-98h-490v-537h596v-104h-723zM270 1458l209 361h101l211 -361h-121l-99 184l-43 123l-43 -123l-108 -184h-107z" />
<glyph unicode="&#xcb;" horiz-adv-x="999" d="M184 0v1333h688v-104h-561v-490h490v-98h-490v-537h596v-104h-723zM287 1561q0 41 27.5 67.5t64.5 26.5t64.5 -26.5t27.5 -67.5t-27.5 -68t-64.5 -27t-64.5 27t-27.5 68zM610 1561q0 41 28 67.5t64 26.5q37 0 65 -26.5t28 -67.5t-28 -68t-65 -27t-64.5 27t-27.5 68z" />
<glyph unicode="&#xcc;" horiz-adv-x="516" d="M18 1794h148l145 -336h-78zM195 0v1333h127v-1333h-127z" />
<glyph unicode="&#xcd;" horiz-adv-x="516" d="M195 0v1333h127v-1333h-127zM225 1458l146 336h147l-215 -336h-78z" />
<glyph unicode="&#xce;" horiz-adv-x="516" d="M-2 1458l209 361h100l211 -361h-121l-98 184l-43 123l-43 -123l-109 -184h-106zM195 0v1333h127v-1333h-127z" />
<glyph unicode="&#xcf;" horiz-adv-x="516" d="M4 1561q0 41 27.5 67.5t64.5 26.5t64.5 -26.5t27.5 -67.5t-27.5 -68t-64.5 -27t-64.5 27t-27.5 68zM195 0v1333h127v-1333h-127zM328 1561q0 41 27.5 67.5t64.5 26.5t64.5 -26.5t27.5 -67.5t-27.5 -68t-64.5 -27t-64.5 27t-27.5 68z" />
<glyph unicode="&#xd0;" horiz-adv-x="1208" d="M43 610v107h162v616h340q281 0 418 -170t137 -493q0 -344 -138.5 -507t-435.5 -163h-321v610h-162zM332 98h180q113 0 198 22.5t141 84t84 170t28 280.5v37q0 158 -27 261.5t-83 164t-142 85t-203 24.5h-176v-510h278v-107h-278v-512z" />
<glyph unicode="&#xd1;" d="M184 0v1333h146l475 -913l131 -350l-29 391v872h119v-1333h-139l-498 954l-113 318l27 -348v-924h-119zM348 1491q0 121 45 178t103 57q66 0 116 -67l43 -55q14 -16 23.5 -24.5t23.5 -8.5q57 0 58 115v24h84q0 -121 -45.5 -178t-102.5 -57q-35 0 -62.5 16t-53.5 51 l-43 55q-14 16 -22.5 24.5t-25.5 8.5q-57 0 -57 -114v-25h-84z" />
<glyph unicode="&#xd2;" d="M109 670q0 154 30.5 279.5t93 216.5t155.5 141.5t218 50.5q123 0 216 -49t155.5 -139.5t93.5 -216.5t31 -279q0 -338 -122 -520.5t-378 -182.5q-125 0 -218 50.5t-154.5 141.5t-91 220t-29.5 287zM242 657q0 -160 23.5 -271.5t69.5 -182t114.5 -102t156.5 -31.5 t155.5 32.5t114 104.5t70 184.5t23.5 272.5v41q0 285 -91.5 414.5t-273.5 129.5q-180 0 -271 -134t-91 -419v-39zM365 1794h147l145 -336h-77z" />
<glyph unicode="&#xd3;" d="M109 670q0 154 30.5 279.5t93 216.5t155.5 141.5t218 50.5q123 0 216 -49t155.5 -139.5t93.5 -216.5t31 -279q0 -338 -122 -520.5t-378 -182.5q-125 0 -218 50.5t-154.5 141.5t-91 220t-29.5 287zM242 657q0 -160 23.5 -271.5t69.5 -182t114.5 -102t156.5 -31.5 t155.5 32.5t114 104.5t70 184.5t23.5 272.5v41q0 285 -91.5 414.5t-273.5 129.5q-180 0 -271 -134t-91 -419v-39zM571 1458l146 336h147l-215 -336h-78z" />
<glyph unicode="&#xd4;" d="M109 670q0 154 30.5 279.5t93 216.5t155.5 141.5t218 50.5q123 0 216 -49t155.5 -139.5t93.5 -216.5t31 -279q0 -338 -122 -520.5t-378 -182.5q-125 0 -218 50.5t-154.5 141.5t-91 220t-29.5 287zM242 657q0 -160 23.5 -271.5t69.5 -182t114.5 -102t156.5 -31.5 t155.5 32.5t114 104.5t70 184.5t23.5 272.5v41q0 285 -91.5 414.5t-273.5 129.5q-180 0 -271 -134t-91 -419v-39zM344 1458l209 361h100l211 -361h-121l-98 184l-43 123l-43 -123l-108 -184h-107z" />
<glyph unicode="&#xd5;" d="M109 670q0 154 30.5 279.5t93 216.5t155.5 141.5t218 50.5q123 0 216 -49t155.5 -139.5t93.5 -216.5t31 -279q0 -338 -122 -520.5t-378 -182.5q-125 0 -218 50.5t-154.5 141.5t-91 220t-29.5 287zM242 657q0 -160 23.5 -271.5t69.5 -182t114.5 -102t156.5 -31.5 t155.5 32.5t114 104.5t70 184.5t23.5 272.5v41q0 285 -91.5 414.5t-273.5 129.5q-180 0 -271 -134t-91 -419v-39zM356 1491q0 121 45 178t103 57q66 0 117 -67l43 -55q14 -16 23 -24.5t24 -8.5q57 0 57 115v24h84q0 -121 -45 -178t-102 -57q-35 0 -63 16t-54 51l-43 55 q-14 16 -22.5 24.5t-24.5 8.5q-57 0 -58 -114v-25h-84z" />
<glyph unicode="&#xd6;" d="M109 670q0 154 30.5 279.5t93 216.5t155.5 141.5t218 50.5q123 0 216 -49t155.5 -139.5t93.5 -216.5t31 -279q0 -338 -122 -520.5t-378 -182.5q-125 0 -218 50.5t-154.5 141.5t-91 220t-29.5 287zM242 657q0 -160 23.5 -271.5t69.5 -182t114.5 -102t156.5 -31.5 t155.5 32.5t114 104.5t70 184.5t23.5 272.5v41q0 285 -91.5 414.5t-273.5 129.5q-180 0 -271 -134t-91 -419v-39zM350 1561q0 41 28 67.5t64 26.5q37 0 65 -26.5t28 -67.5t-28 -68t-65 -27t-64.5 27t-27.5 68zM674 1561q0 41 27.5 67.5t64.5 26.5t64.5 -26.5t27.5 -67.5 t-27.5 -68t-64.5 -27t-64.5 27t-27.5 68z" />
<glyph unicode="&#xd7;" horiz-adv-x="1003" d="M150 328l276 284l-276 285l75 76l275 -283q2 0 44 44t95 97q61 63 137 142l78 -76q-78 -78 -139 -141q-27 -27 -51.5 -52.5t-44 -46t-31.5 -33.5l-13 -12l279 -284l-78 -76l-274 283l-277 -283z" />
<glyph unicode="&#xd9;" horiz-adv-x="1183" d="M174 496v837h127v-884q0 -119 14.5 -193t46 -115t83 -56t124.5 -15q106 0 176 30.5t127 67.5v1165h127v-1333h-61l-51 123l-76 -96q-37 -16 -105.5 -36t-152.5 -20q-104 0 -177 31t-118 94.5t-64.5 162.5t-19.5 237zM377 1794h147l146 -336h-78z" />
<glyph unicode="&#xda;" horiz-adv-x="1183" d="M174 496v837h127v-884q0 -119 14.5 -193t46 -115t83 -56t124.5 -15q106 0 176 30.5t127 67.5v1165h127v-1333h-61l-51 123l-76 -96q-37 -16 -105.5 -36t-152.5 -20q-104 0 -177 31t-118 94.5t-64.5 162.5t-19.5 237zM559 1458l146 336h147l-215 -336h-78z" />
<glyph unicode="&#xdb;" horiz-adv-x="1183" d="M174 496v837h127v-884q0 -119 14.5 -193t46 -115t83 -56t124.5 -15q106 0 176 30.5t127 67.5v1165h127v-1333h-61l-51 123l-76 -96q-37 -16 -105.5 -36t-152.5 -20q-104 0 -177 31t-118 94.5t-64.5 162.5t-19.5 237zM332 1458l209 361h100l211 -361h-121l-98 184l-43 123 l-43 -123l-109 -184h-106z" />
<glyph unicode="&#xdc;" horiz-adv-x="1183" d="M174 496v837h127v-884q0 -119 14.5 -193t46 -115t83 -56t124.5 -15q106 0 176 30.5t127 67.5v1165h127v-1333h-61l-51 123l-76 -96q-37 -16 -105.5 -36t-152.5 -20q-104 0 -177 31t-118 94.5t-64.5 162.5t-19.5 237zM338 1561q0 41 27.5 67.5t64.5 26.5t64.5 -26.5 t27.5 -67.5t-27.5 -68t-64.5 -27t-64.5 27t-27.5 68zM662 1561q0 41 27.5 67.5t64.5 26.5t64.5 -26.5t27.5 -67.5t-27.5 -68t-64.5 -27t-64.5 27t-27.5 68z" />
<glyph unicode="&#xdd;" horiz-adv-x="1038" d="M61 1333h138l270 -600l61 -229l66 229l262 600h119l-383 -852v-481h-127v473zM485 1458l146 336h147l-215 -336h-78z" />
<glyph unicode="&#xde;" horiz-adv-x="1062" d="M184 0v1333h127v-231h262q109 0 187 -31t127 -85t72.5 -127t23.5 -157q0 -82 -22.5 -155.5t-71.5 -129t-127 -88t-189 -32.5h-262v-297h-127zM311 389h248q158 0 222.5 71.5t64.5 235.5v17q0 158 -65.5 221t-225.5 63h-244v-608z" />
<glyph unicode="&#xe0;" horiz-adv-x="964" d="M98 279q0 158 91.5 230.5t279.5 88.5l201 16v125q0 53 -8.5 97.5t-30 76t-59 50t-99.5 18.5q-78 0 -151.5 -18.5t-151.5 -44.5l-18 94q78 31 151.5 51t167.5 20q166 0 239.5 -93t73.5 -292v-546q0 -47 17.5 -64.5t58.5 -17.5h35l4 -72q-12 -6 -33.5 -12t-50.5 -6 q-41 0 -76 14l-65 112l-99 -106q-29 -12 -71.5 -20.5t-89.5 -8.5q-68 0 -125.5 16.5t-99.5 52.5t-66.5 94.5t-24.5 144.5zM217 268q0 -109 50 -154.5t161 -45.5q92 0 148.5 34.5t93.5 79.5v353l-193 -19q-137 -12 -198.5 -62.5t-61.5 -170.5v-15zM242 1550h147l146 -336h-78 z" />
<glyph unicode="&#xe1;" horiz-adv-x="964" d="M98 279q0 158 91.5 230.5t279.5 88.5l201 16v125q0 53 -8.5 97.5t-30 76t-59 50t-99.5 18.5q-78 0 -151.5 -18.5t-151.5 -44.5l-18 94q78 31 151.5 51t167.5 20q166 0 239.5 -93t73.5 -292v-546q0 -47 17.5 -64.5t58.5 -17.5h35l4 -72q-12 -6 -33.5 -12t-50.5 -6 q-41 0 -76 14l-65 112l-99 -106q-29 -12 -71.5 -20.5t-89.5 -8.5q-68 0 -125.5 16.5t-99.5 52.5t-66.5 94.5t-24.5 144.5zM217 268q0 -109 50 -154.5t161 -45.5q92 0 148.5 34.5t93.5 79.5v353l-193 -19q-137 -12 -198.5 -62.5t-61.5 -170.5v-15zM408 1214l145 336h147 l-215 -336h-77z" />
<glyph unicode="&#xe2;" horiz-adv-x="964" d="M98 279q0 158 91.5 230.5t279.5 88.5l201 16v125q0 53 -8.5 97.5t-30 76t-59 50t-99.5 18.5q-78 0 -151.5 -18.5t-151.5 -44.5l-18 94q78 31 151.5 51t167.5 20q166 0 239.5 -93t73.5 -292v-546q0 -47 17.5 -64.5t58.5 -17.5h35l4 -72q-12 -6 -33.5 -12t-50.5 -6 q-41 0 -76 14l-65 112l-99 -106q-29 -12 -71.5 -20.5t-89.5 -8.5q-68 0 -125.5 16.5t-99.5 52.5t-66.5 94.5t-24.5 144.5zM207 1214l209 361h100l211 -361h-121l-98 185l-43 123l-43 -123l-109 -185h-106zM217 268q0 -109 50 -154.5t161 -45.5q92 0 148.5 34.5t93.5 79.5 v353l-193 -19q-137 -12 -198.5 -62.5t-61.5 -170.5v-15z" />
<glyph unicode="&#xe3;" horiz-adv-x="964" d="M98 279q0 158 91.5 230.5t279.5 88.5l201 16v125q0 53 -8.5 97.5t-30 76t-59 50t-99.5 18.5q-78 0 -151.5 -18.5t-151.5 -44.5l-18 94q78 31 151.5 51t167.5 20q166 0 239.5 -93t73.5 -292v-546q0 -47 17.5 -64.5t58.5 -17.5h35l4 -72q-12 -6 -33.5 -12t-50.5 -6 q-41 0 -76 14l-65 112l-99 -106q-29 -12 -71.5 -20.5t-89.5 -8.5q-68 0 -125.5 16.5t-99.5 52.5t-66.5 94.5t-24.5 144.5zM213 1247q0 121 45 178.5t102 57.5q66 0 117 -68l43 -55q14 -16 23.5 -24.5t23.5 -8.5q57 0 58 115v24h84q0 -121 -45.5 -178t-102.5 -57 q-35 0 -62.5 16.5t-54.5 50.5l-43 56q-14 16 -22 24t-25 8q-57 0 -57 -114v-25h-84zM217 268q0 -109 50 -154.5t161 -45.5q92 0 148.5 34.5t93.5 79.5v353l-193 -19q-137 -12 -198.5 -62.5t-61.5 -170.5v-15z" />
<glyph unicode="&#xe4;" horiz-adv-x="964" d="M98 279q0 158 91.5 230.5t279.5 88.5l201 16v125q0 53 -8.5 97.5t-30 76t-59 50t-99.5 18.5q-78 0 -151.5 -18.5t-151.5 -44.5l-18 94q78 31 151.5 51t167.5 20q166 0 239.5 -93t73.5 -292v-546q0 -47 17.5 -64.5t58.5 -17.5h35l4 -72q-12 -6 -33.5 -12t-50.5 -6 q-41 0 -76 14l-65 112l-99 -106q-29 -12 -71.5 -20.5t-89.5 -8.5q-68 0 -125.5 16.5t-99.5 52.5t-66.5 94.5t-24.5 144.5zM217 268q0 -109 50 -154.5t161 -45.5q92 0 148.5 34.5t93.5 79.5v353l-193 -19q-137 -12 -198.5 -62.5t-61.5 -170.5v-15zM227 1317q0 41 28 67.5 t64 26.5q37 0 65 -26.5t28 -67.5t-28 -67.5t-65 -26.5t-64.5 26.5t-27.5 67.5zM551 1317q0 41 27.5 67.5t64.5 26.5t64.5 -26.5t27.5 -67.5t-27.5 -67.5t-64.5 -26.5t-64.5 26.5t-27.5 67.5z" />
<glyph unicode="&#xe5;" horiz-adv-x="964" d="M98 279q0 158 91.5 230.5t279.5 88.5l201 16v125q0 53 -8.5 97.5t-30 76t-59 50t-99.5 18.5q-78 0 -151.5 -18.5t-151.5 -44.5l-18 94q78 31 151.5 51t167.5 20q166 0 239.5 -93t73.5 -292v-546q0 -47 17.5 -64.5t58.5 -17.5h35l4 -72q-12 -6 -33.5 -12t-50.5 -6 q-41 0 -76 14l-65 112l-99 -106q-29 -12 -71.5 -20.5t-89.5 -8.5q-68 0 -125.5 16.5t-99.5 52.5t-66.5 94.5t-24.5 144.5zM217 268q0 -109 50 -154.5t161 -45.5q92 0 148.5 34.5t93.5 79.5v353l-193 -19q-137 -12 -198.5 -62.5t-61.5 -170.5v-15zM268 1432q0 109 56.5 166 t142.5 57t142.5 -57.5t56.5 -165.5q0 -109 -56.5 -165.5t-142.5 -56.5t-142.5 56.5t-56.5 165.5zM360 1432q0 -88 29 -115t78 -27t77.5 26.5t28.5 115.5q0 90 -28.5 117.5t-77.5 27.5t-78 -27.5t-29 -117.5z" />
<glyph unicode="&#xe7;" horiz-adv-x="849" d="M102 535q0 285 99.5 416.5t292.5 131.5q78 0 147.5 -17t128.5 -42l-20 -94q-78 25 -133.5 39t-114.5 14q-68 0 -119 -18.5t-86 -66.5t-53.5 -132t-18.5 -213v-27q0 -133 18.5 -222t54.5 -141t87 -73.5t117 -21.5q37 0 65.5 5t56 14t58.5 22.5t68 31.5l30 -88 q-47 -29 -117.5 -53.5t-152.5 -28.5l-61 -153l67 35q78 2 130 -40t52 -122q0 -45 -18 -79t-48 -55.5t-70 -31.5t-83 -10q-51 0 -98 14t-78 35l16 71q41 -16 79 -27t73 -11q66 0 91.5 20.5t25.5 60.5v17q0 41 -19.5 58.5t-60.5 17.5q-35 0 -52.5 -8.5t-37.5 -24.5l-62 49 l74 188q-160 23 -244 159t-84 401z" />
<glyph unicode="&#xe8;" horiz-adv-x="970" d="M102 530q0 147 30 252t83 172.5t127 98t162 30.5q182 0 271 -132t89 -353v-100h-639q0 -121 19.5 -203t56.5 -133t93.5 -72.5t129.5 -21.5q70 0 133.5 19t137.5 54l26 -90q-47 -27 -130 -53.5t-175 -26.5q-205 0 -309.5 137.5t-104.5 421.5zM225 594h518v27 q0 201 -60 283.5t-179 82.5q-57 0 -107.5 -16.5t-87.5 -59.5t-58.5 -119.5t-25.5 -197.5zM258 1550h148l145 -336h-78z" />
<glyph unicode="&#xe9;" horiz-adv-x="970" d="M102 530q0 147 30 252t83 172.5t127 98t162 30.5q182 0 271 -132t89 -353v-100h-639q0 -121 19.5 -203t56.5 -133t93.5 -72.5t129.5 -21.5q70 0 133.5 19t137.5 54l26 -90q-47 -27 -130 -53.5t-175 -26.5q-205 0 -309.5 137.5t-104.5 421.5zM225 594h518v27 q0 201 -60 283.5t-179 82.5q-57 0 -107.5 -16.5t-87.5 -59.5t-58.5 -119.5t-25.5 -197.5zM455 1214l145 336h148l-216 -336h-77z" />
<glyph unicode="&#xea;" horiz-adv-x="970" d="M102 530q0 147 30 252t83 172.5t127 98t162 30.5q182 0 271 -132t89 -353v-100h-639q0 -121 19.5 -203t56.5 -133t93.5 -72.5t129.5 -21.5q70 0 133.5 19t137.5 54l26 -90q-47 -27 -130 -53.5t-175 -26.5q-205 0 -309.5 137.5t-104.5 421.5zM225 594h518v27 q0 201 -60 283.5t-179 82.5q-57 0 -107.5 -16.5t-87.5 -59.5t-58.5 -119.5t-25.5 -197.5zM231 1214l209 361h101l211 -361h-121l-99 185l-43 123l-43 -123l-108 -185h-107z" />
<glyph unicode="&#xeb;" horiz-adv-x="970" d="M102 530q0 147 30 252t83 172.5t127 98t162 30.5q182 0 271 -132t89 -353v-100h-639q0 -121 19.5 -203t56.5 -133t93.5 -72.5t129.5 -21.5q70 0 133.5 19t137.5 54l26 -90q-47 -27 -130 -53.5t-175 -26.5q-205 0 -309.5 137.5t-104.5 421.5zM225 594h518v27 q0 201 -60 283.5t-179 82.5q-57 0 -107.5 -16.5t-87.5 -59.5t-58.5 -119.5t-25.5 -197.5zM236 1317q0 41 27.5 67.5t64.5 26.5t64.5 -26.5t27.5 -67.5t-27.5 -67.5t-64.5 -26.5t-64.5 26.5t-27.5 67.5zM559 1317q0 41 27.5 67.5t64.5 26.5t64.5 -26.5t27.5 -67.5 t-27.5 -67.5t-64.5 -26.5t-64.5 26.5t-27.5 67.5z" />
<glyph unicode="&#xec;" horiz-adv-x="466" d="M0 1550h147l146 -336h-78zM174 0v1063h117v-1063h-117z" />
<glyph unicode="&#xed;" horiz-adv-x="466" d="M174 0v1063h117v-1063h-117zM195 1214l145 336h147l-215 -336h-77z" />
<glyph unicode="&#xee;" horiz-adv-x="466" d="M-27 1214l209 361h101l211 -361h-121l-99 185l-43 123l-43 -123l-108 -185h-107zM174 0v1063h117v-1063h-117z" />
<glyph unicode="&#xef;" horiz-adv-x="466" d="M-20 1317q0 41 27.5 67.5t64.5 26.5t64.5 -26.5t27.5 -67.5t-27.5 -67.5t-64.5 -26.5t-64.5 26.5t-27.5 67.5zM174 0v1063h117v-1063h-117zM303 1317q0 41 27.5 67.5t64.5 26.5t64.5 -26.5t27.5 -67.5t-27.5 -67.5t-64.5 -26.5t-64.5 26.5t-27.5 67.5z" />
<glyph unicode="&#xf0;" horiz-adv-x="1015" d="M102 508q0 137 31 237.5t84 166t129 97t164 31.5q33 0 57.5 -4t44.5 -10l144 -117q-23 98 -60 177t-84 151l-194 -104l-37 69l184 101q-31 43 -65.5 83.5t-73.5 83.5h115q23 -20 51.5 -49.5t60.5 -70.5l172 94l37 -70l-162 -88q41 -57 79 -129t68 -161t48 -193.5 t18 -224.5q0 -166 -28.5 -282t-81.5 -187.5t-127 -104.5t-166 -33t-167 33t-128 99.5t-83 168t-30 236.5zM225 502q0 -129 20.5 -213t58.5 -133.5t90 -69.5t116 -20q63 0 114.5 17t88.5 70.5t57.5 149.5t20.5 252v27q-1 149 -21 258q-53 47 -110.5 75.5t-149.5 28.5 q-66 0 -118 -18.5t-89 -65.5t-57.5 -128t-20.5 -204v-26z" />
<glyph unicode="&#xf1;" horiz-adv-x="1028" d="M168 0v1063h57l56 -131l92 102q35 16 85 32.5t124 16.5q63 0 115.5 -17t90 -56t59 -101.5t21.5 -154.5v-754h-116v778q0 59 -14.5 99.5t-39 64t-58.5 33.5t-75 10q-92 0 -153.5 -28.5t-126.5 -77.5v-879h-117zM262 1247q0 121 45 178.5t103 57.5q66 0 116 -68l43 -55 q14 -16 23.5 -24.5t23.5 -8.5q57 0 58 115v24h84q0 -121 -45.5 -178t-102.5 -57q-35 0 -62.5 16.5t-53.5 50.5l-43 56q-14 16 -22.5 24t-25.5 8q-57 0 -57 -114v-25h-84z" />
<glyph unicode="&#xf2;" horiz-adv-x="1015" d="M102 528q0 137 31 241.5t84 174.5t129 104.5t164 34.5q90 0 164 -34.5t127 -104.5t82.5 -172t29.5 -237q0 -279 -109.5 -421.5t-293.5 -142.5q-92 0 -167 36t-128 106.5t-83 175t-30 239.5zM225 522q0 -125 21.5 -212t59.5 -141t90.5 -78.5t113.5 -24.5t112.5 24.5 t89.5 77.5t58.5 138t20.5 206v27q0 129 -19.5 214t-56.5 137t-88.5 73.5t-116.5 21.5q-66 0 -118 -21.5t-89 -72.5t-57.5 -135t-20.5 -207v-27zM268 1550h148l145 -336h-78z" />
<glyph unicode="&#xf3;" horiz-adv-x="1015" d="M102 528q0 137 31 241.5t84 174.5t129 104.5t164 34.5q90 0 164 -34.5t127 -104.5t82.5 -172t29.5 -237q0 -279 -109.5 -421.5t-293.5 -142.5q-92 0 -167 36t-128 106.5t-83 175t-30 239.5zM225 522q0 -125 21.5 -212t59.5 -141t90.5 -78.5t113.5 -24.5t112.5 24.5 t89.5 77.5t58.5 138t20.5 206v27q0 129 -19.5 214t-56.5 137t-88.5 73.5t-116.5 21.5q-66 0 -118 -21.5t-89 -72.5t-57.5 -135t-20.5 -207v-27zM475 1214l146 336h147l-215 -336h-78z" />
<glyph unicode="&#xf4;" horiz-adv-x="1015" d="M102 528q0 137 31 241.5t84 174.5t129 104.5t164 34.5q90 0 164 -34.5t127 -104.5t82.5 -172t29.5 -237q0 -279 -109.5 -421.5t-293.5 -142.5q-92 0 -167 36t-128 106.5t-83 175t-30 239.5zM225 522q0 -125 21.5 -212t59.5 -141t90.5 -78.5t113.5 -24.5t112.5 24.5 t89.5 77.5t58.5 138t20.5 206v27q0 129 -19.5 214t-56.5 137t-88.5 73.5t-116.5 21.5q-66 0 -118 -21.5t-89 -72.5t-57.5 -135t-20.5 -207v-27zM248 1214l209 361h100l211 -361h-121l-98 185l-43 123l-43 -123l-109 -185h-106z" />
<glyph unicode="&#xf5;" horiz-adv-x="1015" d="M102 528q0 137 31 241.5t84 174.5t129 104.5t164 34.5q90 0 164 -34.5t127 -104.5t82.5 -172t29.5 -237q0 -279 -109.5 -421.5t-293.5 -142.5q-92 0 -167 36t-128 106.5t-83 175t-30 239.5zM225 522q0 -125 21.5 -212t59.5 -141t90.5 -78.5t113.5 -24.5t112.5 24.5 t89.5 77.5t58.5 138t20.5 206v27q0 129 -19.5 214t-56.5 137t-88.5 73.5t-116.5 21.5q-66 0 -118 -21.5t-89 -72.5t-57.5 -135t-20.5 -207v-27zM260 1247q0 121 45 178.5t103 57.5q66 0 116 -68l43 -55q14 -16 23.5 -24.5t23.5 -8.5q57 0 58 115v24h84q0 -121 -45.5 -178 t-102.5 -57q-35 0 -62.5 16.5t-53.5 50.5l-43 56q-14 16 -22.5 24t-25.5 8q-57 0 -57 -114v-25h-84z" />
<glyph unicode="&#xf6;" horiz-adv-x="1015" d="M102 528q0 137 31 241.5t84 174.5t129 104.5t164 34.5q90 0 164 -34.5t127 -104.5t82.5 -172t29.5 -237q0 -279 -109.5 -421.5t-293.5 -142.5q-92 0 -167 36t-128 106.5t-83 175t-30 239.5zM225 522q0 -125 21.5 -212t59.5 -141t90.5 -78.5t113.5 -24.5t112.5 24.5 t89.5 77.5t58.5 138t20.5 206v27q0 129 -19.5 214t-56.5 137t-88.5 73.5t-116.5 21.5q-66 0 -118 -21.5t-89 -72.5t-57.5 -135t-20.5 -207v-27zM254 1317q0 41 27.5 67.5t64.5 26.5t64.5 -26.5t27.5 -67.5t-27.5 -67.5t-64.5 -26.5t-64.5 26.5t-27.5 67.5zM578 1317 q0 41 27.5 67.5t64.5 26.5t64.5 -26.5t27.5 -67.5t-27.5 -67.5t-64.5 -26.5t-64.5 26.5t-27.5 67.5z" />
<glyph unicode="&#xf7;" horiz-adv-x="1167" d="M72 1311l125 30l149 -550l92 -476l-55 -16l-164 457zM406 94q0 51 33.5 83t76.5 32q47 0 80 -32t33 -83q0 -49 -33 -80.5t-80 -31.5q-43 0 -76.5 31.5t-33.5 80.5zM416 1352q49 16 114.5 27.5t147.5 11.5q88 0 158.5 -17.5t121 -57.5t77 -104.5t26.5 -156.5 q0 -88 -16.5 -160t-58.5 -125t-115.5 -88t-188.5 -51l-45 -316l-74 9l4 272q0 51 13.5 76.5t68.5 36.5q82 12 132 29.5t80 46t44.5 73.5t22.5 113l4 33q10 88 -1 143t-45 87t-90.5 43t-133.5 11q-47 0 -107.5 -7t-120.5 -19z" />
<glyph unicode="&#xf8;" horiz-adv-x="616" d="M82 559v107l166 90v714h119v-649l168 90v-106l-168 -92v-713h-119v649z" />
<glyph unicode="&#xf9;" horiz-adv-x="1019" d="M160 309v754h116v-778q0 -121 51.5 -167t131.5 -46q92 0 154.5 27.5t121.5 78.5v885h117v-1063h-57l-56 123l-86 -98q-33 -16 -85 -30.5t-126 -14.5q-61 0 -113.5 17t-89 56t-58 101.5t-21.5 154.5zM270 1550h148l145 -336h-78z" />
<glyph unicode="&#xfa;" horiz-adv-x="1019" d="M160 309v754h116v-778q0 -121 51.5 -167t131.5 -46q92 0 154.5 27.5t121.5 78.5v885h117v-1063h-57l-56 123l-86 -98q-33 -16 -85 -30.5t-126 -14.5q-61 0 -113.5 17t-89 56t-58 101.5t-21.5 154.5zM477 1214l146 336h147l-215 -336h-78z" />
<glyph unicode="&#xfb;" horiz-adv-x="1019" d="M160 309v754h116v-778q0 -121 51.5 -167t131.5 -46q92 0 154.5 27.5t121.5 78.5v885h117v-1063h-57l-56 123l-86 -98q-33 -16 -85 -30.5t-126 -14.5q-61 0 -113.5 17t-89 56t-58 101.5t-21.5 154.5zM250 1214l209 361h100l211 -361h-121l-98 185l-43 123l-43 -123 l-109 -185h-106z" />
<glyph unicode="&#xfc;" horiz-adv-x="1019" d="M160 309v754h116v-778q0 -121 51.5 -167t131.5 -46q92 0 154.5 27.5t121.5 78.5v885h117v-1063h-57l-56 123l-86 -98q-33 -16 -85 -30.5t-126 -14.5q-61 0 -113.5 17t-89 56t-58 101.5t-21.5 154.5zM256 1317q0 41 27.5 67.5t64.5 26.5t64.5 -26.5t27.5 -67.5 t-27.5 -67.5t-64.5 -26.5t-64.5 26.5t-27.5 67.5zM580 1317q0 41 27.5 67.5t64.5 26.5t64.5 -26.5t27.5 -67.5t-27.5 -67.5t-64.5 -26.5t-64.5 26.5t-27.5 67.5z" />
<glyph unicode="&#xfd;" horiz-adv-x="897" d="M51 1063h121l225 -721l52 -274l55 274l225 721h117l-447 -1395h-116l104 357zM416 1214l145 336h148l-215 -336h-78z" />
<glyph unicode="&#xfe;" horiz-adv-x="1028" d="M168 -332v1802h117v-512q45 45 112.5 85t165.5 40q168 0 265.5 -130t97.5 -410q0 -305 -101.5 -438.5t-283.5 -133.5q-51 0 -90 9.5t-62 17.5l-104 94v-424h-117zM285 156q53 -41 111.5 -67t129.5 -26q72 0 124 23t86 76t51.5 142t17.5 220v29q0 129 -18.5 213t-52.5 132 t-81 67.5t-102 19.5q-51 0 -93 -11t-74 -28.5t-56.5 -38t-42.5 -39.5v-712z" />
<glyph unicode="&#xff;" horiz-adv-x="897" d="M51 1063h121l225 -721l52 -274l55 274l225 721h117l-447 -1395h-116l104 357zM195 1317q0 41 27.5 67.5t64.5 26.5t64.5 -26.5t27.5 -67.5t-27.5 -67.5t-64.5 -26.5t-64.5 26.5t-27.5 67.5zM518 1317q0 41 27.5 67.5t64.5 26.5t64.5 -26.5t27.5 -67.5t-27.5 -67.5 t-64.5 -26.5t-64.5 26.5t-27.5 67.5z" />
<glyph unicode="&#x178;" horiz-adv-x="1038" d="M61 1333h138l270 -600l61 -229l66 229l262 600h119l-383 -852v-481h-127v473zM276 1561q0 41 28 67.5t65 26.5t64.5 -26.5t27.5 -67.5t-27.5 -68t-64.5 -27t-65 27t-28 68zM600 1561q0 41 27.5 67.5t64.5 26.5t64.5 -26.5t27.5 -67.5t-27.5 -68t-64.5 -27t-64.5 27 t-27.5 68z" />
<glyph unicode="&#x2000;" horiz-adv-x="909" />
<glyph unicode="&#x2001;" horiz-adv-x="1819" />
<glyph unicode="&#x2002;" horiz-adv-x="909" />
<glyph unicode="&#x2003;" horiz-adv-x="1819" />
<glyph unicode="&#x2004;" horiz-adv-x="606" />
<glyph unicode="&#x2005;" horiz-adv-x="454" />
<glyph unicode="&#x2006;" horiz-adv-x="303" />
<glyph unicode="&#x2007;" horiz-adv-x="303" />
<glyph unicode="&#x2008;" horiz-adv-x="227" />
<glyph unicode="&#x2009;" horiz-adv-x="363" />
<glyph unicode="&#x200a;" horiz-adv-x="101" />
<glyph unicode="&#x2010;" horiz-adv-x="636" d="M123 547v121h391v-121h-391z" />
<glyph unicode="&#x2011;" horiz-adv-x="636" d="M123 547v121h391v-121h-391z" />
<glyph unicode="&#x2012;" horiz-adv-x="636" d="M123 547v121h391v-121h-391z" />
<glyph unicode="&#x2013;" horiz-adv-x="1269" d="M123 547v121h1024v-121h-1024z" />
<glyph unicode="&#x2014;" horiz-adv-x="2293" d="M123 547v121h2048v-121h-2048z" />
<glyph unicode="&#x202f;" horiz-adv-x="363" />
<glyph unicode="&#x205f;" horiz-adv-x="454" />
<glyph unicode="&#x20ac;" horiz-adv-x="1056" d="M78 461v100h151q0 27 -1 53.5t-1 55.5v43q0 23 2 45h-151v100h162q14 111 48 202t89 157.5t132 103.5t177 37q92 0 160.5 -17.5t140.5 -44.5l-22 -100q-47 16 -85 26.5t-71 17.5t-65.5 10t-69.5 3q-59 0 -110.5 -19.5t-91.5 -65.5t-67.5 -121.5t-39.5 -188.5h417v-100 h-426v-62v-39v-49q0 -25 2 -47h424v-100h-415q23 -213 99.5 -303t207.5 -90q47 0 83 4t68.5 13t67.5 22.5t78 29.5l35 -90q-76 -37 -148 -56.5t-172 -19.5q-104 0 -182 35t-132.5 99.5t-86 154.5t-45.5 201h-162z" />
<glyph unicode="&#x2122;" horiz-adv-x="1415" d="M86 1257v76h479v-76h-190v-673h-99v673h-190zM676 584v749h110l152 -518l29 -199l39 199l157 518h115v-749h-98v334l28 374l-82 -336l-116 -372h-97l-108 372l-70 336l25 -374v-334h-84z" />
<glyph unicode="&#x25fc;" horiz-adv-x="1064" d="M0 0v1065h1065v-1065h-1065z" />
</font>
</defs>
</svg>
